<svg width="76" height="63" viewBox="0 0 76 63" fill="none" xmlns="http://www.w3.org/2000/svg">
<path d="M8.56675 39H2.14542L4.12942 13.9973H14.1347L16.0121 22.3813L16.8654 26.6267L17.6761 22.4027L19.3401 13.9973H28.2574L30.0921 39H23.4574L22.3694 24.3013L22.1134 18.8827L18.8494 36.504H13.2814L9.35608 18.8827L9.22808 24.3013L8.56675 39ZM40.3872 35.5013C41.4681 35.5013 42.293 34.8329 42.8619 33.496C43.445 32.1591 43.7366 29.9547 43.7366 26.8827V24.728C43.7366 22.4809 43.4664 20.7458 42.9259 19.5227C42.3855 18.2996 41.6175 17.688 40.6219 17.688H39.0219V35.5013H40.3872ZM41.0486 39.1493C40.5366 39.1493 39.7401 39.1209 38.6593 39.064C37.5926 39.0213 36.4904 39 35.3526 39H31.9606V13.9973H35.3526C36.3055 13.9831 37.3437 13.9476 38.4672 13.8907C39.5908 13.8338 40.4726 13.8053 41.1126 13.8053C44.7393 13.8053 47.3348 14.8222 48.8993 16.856C50.4779 18.8898 51.2673 21.8551 51.2673 25.752C51.2673 27.0747 51.1748 28.3333 50.9899 29.528C50.8193 30.7227 50.4921 31.9244 50.0086 33.1333C49.525 34.328 48.9135 35.3591 48.1739 36.2267C47.4344 37.0942 46.453 37.7982 45.2299 38.3387C44.0068 38.8791 42.613 39.1493 41.0486 39.1493ZM60.3344 39H53.2731V13.9973H60.3344V23.896H65.8171V13.9973H72.8784V39H65.8171V28.8027H60.3344V39Z" fill="black"/>
</svg>
