<?xml version="1.0" standalone="no"?>
<!DOCTYPE svg PUBLIC "-//W3C//DTD SVG 20010904//EN"
 "http://www.w3.org/TR/2001/REC-SVG-20010904/DTD/svg10.dtd">
<svg version="1.0" xmlns="http://www.w3.org/2000/svg"
 width="192.000000pt" height="82.000000pt" viewBox="0 0 192.000000 82.000000"
 preserveAspectRatio="xMidYMid meet">

<g transform="translate(0.000000,82.000000) scale(0.100000,-0.100000)"
fill="#000000" stroke="none">
<path d="M100 442 l0 -369 40 -32 c32 -26 48 -32 78 -29 30 2 38 7 40 27 l4
23 28 -27 c22 -21 35 -26 66 -23 l39 3 3 359 2 360 -37 38 c-32 32 -43 38 -80
38 -40 0 -43 -2 -43 -27 l0 -27 -28 27 c-21 21 -38 27 -70 27 l-42 0 0 -368z
m80 188 l0 -160 35 0 35 0 0 160 0 160 35 0 35 0 0 -351 0 -350 -32 3 -33 3
-3 163 -2 162 -35 0 -35 0 0 -166 0 -165 -32 3 -33 3 -3 348 -2 347 35 0 35 0
0 -160z"/>
<path d="M546 798 c-2 -7 -18 -173 -36 -368 l-31 -355 38 -32 c28 -24 48 -33
74 -33 42 0 48 9 50 78 1 27 4 36 6 21 2 -14 21 -43 42 -63 33 -32 44 -37 77
-34 35 3 39 6 37 28 -1 14 -14 176 -29 360 l-27 335 -35 38 c-34 35 -39 37
-99 37 -42 0 -65 -4 -67 -12z m124 -25 c0 -10 11 -150 25 -312 32 -373 32
-371 1 -371 -29 0 -36 16 -36 83 0 85 -7 97 -50 97 l-38 0 -7 -67 c-3 -38 -7
-77 -8 -88 -1 -14 -11 -21 -29 -23 -26 -3 -28 0 -28 30 0 32 43 508 55 616 l6
52 55 0 c45 0 54 -3 54 -17z"/>
<path d="M606 659 c-7 -44 -26 -268 -26 -308 0 -29 3 -31 35 -31 35 0 35 0 30
38 -2 20 -10 102 -16 182 -6 80 -12 147 -14 148 -2 2 -6 -11 -9 -29z"/>
<path d="M890 441 l0 -369 40 -32 c31 -25 47 -31 77 -28 l38 3 3 359 2 360
-37 38 c-32 32 -43 38 -80 38 l-43 0 0 -369z m80 -1 l0 -350 -35 0 -35 0 0
350 0 350 35 0 35 0 0 -350z"/>
<path d="M1195 798 c-2 -7 -18 -173 -35 -368 l-32 -355 39 -32 c27 -24 48 -33
74 -33 42 0 48 10 50 73 1 23 4 33 6 21 2 -11 21 -38 42 -58 33 -32 44 -37 77
-34 35 3 39 6 37 28 -1 14 -14 176 -29 360 l-27 335 -35 38 c-34 35 -39 37
-99 37 -42 0 -65 -4 -68 -12z m125 -26 c0 -10 11 -150 25 -312 14 -162 25
-312 25 -333 0 -36 -2 -38 -27 -35 -26 3 -28 7 -30 48 -2 25 -5 64 -9 88 -5
41 -6 42 -44 42 l-38 0 -7 -67 c-3 -38 -7 -77 -8 -88 -1 -14 -11 -21 -29 -23
-26 -3 -28 0 -28 30 0 35 46 552 56 626 l5 42 55 0 c45 0 54 -3 54 -18z"/>
<path d="M1256 659 c-8 -51 -26 -260 -26 -302 0 -36 1 -37 35 -37 35 0 35 0
30 38 -2 20 -10 102 -16 182 -6 80 -13 147 -14 149 -2 1 -6 -12 -9 -30z"/>
<path d="M1500 761 c0 -44 4 -52 40 -85 l40 -36 0 -284 0 -284 40 -32 c31 -25
47 -31 77 -28 l38 3 3 318 2 317 40 0 40 0 0 43 c0 37 -6 48 -38 80 l-38 37
-122 0 -122 0 0 -49z m240 -1 c0 -28 -2 -30 -40 -30 l-40 0 -2 -317 -3 -318
-32 -3 -33 -3 0 320 0 321 -40 0 c-38 0 -40 2 -40 30 l0 30 115 0 115 0 0 -30z"/>
</g>
</svg>
